<?xml version="1.0" encoding="UTF-8"?>
<svg width="19px" height="19px" viewBox="0 0 19 19" version="1.1" xmlns="http://www.w3.org/2000/svg" xmlns:xlink="http://www.w3.org/1999/xlink">
    <!-- Generator: sketchtool 55.2 (78181) - https://sketchapp.com -->
    <title>3EC56963-9D4A-4FCB-8DE3-BD1754D9DE80</title>
    <desc>Created with sketchtool.</desc>
    <g id="design_02" stroke="none" stroke-width="1" fill="none" fill-rule="evenodd">
        <g id="assets_icon" transform="translate(-682.000000, -240.000000)" fill="#FFFFFF" fill-rule="nonzero">
            <path d="M691.488967,250.2075 L683.342467,258.354 C683.245467,258.451 683.117467,258.5 682.989467,258.5 C682.861467,258.5 682.733467,258.451 682.635467,258.354 C682.440467,258.159 682.440467,257.842 682.635467,257.647 L690.781967,249.5005 L682.635467,241.354 C682.440467,241.159 682.440467,240.842 682.635467,240.647 C682.830467,240.452 683.147467,240.452 683.342467,240.647 L691.488967,248.7935 L699.635467,240.647 C699.830467,240.452 700.147467,240.452 700.342467,240.647 C700.537467,240.842 700.537467,241.159 700.342467,241.354 L692.195967,249.5005 L700.342467,257.647 C700.537467,257.842 700.537467,258.159 700.342467,258.354 C700.245467,258.451 700.117467,258.5 699.989467,258.5 C699.861467,258.5 699.733467,258.451 699.635467,258.354 L691.488967,250.2075 Z" id="icon_close"></path>
        </g>
    </g>
</svg>