<?xml version="1.0" encoding="UTF-8"?>
<svg width="25px" height="19px" viewBox="0 0 25 19" version="1.1" xmlns="http://www.w3.org/2000/svg" xmlns:xlink="http://www.w3.org/1999/xlink">
    <!-- Generator: sketchtool 55.2 (78181) - https://sketchapp.com -->
    <title>41D0639F-977C-42E3-92B1-A4609A130C5C</title>
    <desc>Created with sketchtool.</desc>
    <g id="design_02" stroke="none" stroke-width="1" fill="none" fill-rule="evenodd">
        <g id="assets_icon" transform="translate(-594.000000, -240.000000)" fill="#FFFFFF" fill-rule="nonzero">
            <path d="M617.989217,241 L594.989217,241 C594.713217,241 594.489217,240.776 594.489217,240.5 C594.489217,240.224 594.713217,240 594.989217,240 L617.989217,240 C618.265217,240 618.489217,240.224 618.489217,240.5 C618.489217,240.776 618.265217,241 617.989217,241 Z M617.989217,250 L594.989217,250 C594.713217,250 594.489217,249.776 594.489217,249.5 C594.489217,249.224 594.713217,249 594.989217,249 L617.989217,249 C618.265217,249 618.489217,249.224 618.489217,249.5 C618.489217,249.776 618.265217,250 617.989217,250 Z M617.989217,259 L594.989217,259 C594.713217,259 594.489217,258.776 594.489217,258.5 C594.489217,258.224 594.713217,258 594.989217,258 L617.989217,258 C618.265217,258 618.489217,258.224 618.489217,258.5 C618.489217,258.776 618.265217,259 617.989217,259 Z" id="icon_menu"></path>
        </g>
    </g>
</svg>