<svg xmlns="http://www.w3.org/2000/svg" viewBox="0 0 252.51 65.12"><defs><style>.cls-1{fill:#e30613;}.cls-2{fill:#222;}</style></defs><title>Asset 3</title><g id="Layer_2" data-name="Layer 2"><g id="Layer_1-2" data-name="Layer 1"><path class="cls-1" d="M233.12,46.24,228.88,42l16.76-16.76a3,3,0,0,0,0-4.24L228.88,4.24,233.12,0l16.76,16.76a9,9,0,0,1,0,12.72Z"/><polygon class="cls-1" points="224.12 37.24 219.88 33 229.76 23.12 219.88 13.24 224.12 9 238.24 23.12 224.12 37.24"/><path class="cls-2" d="M144,44.15l-6,0c0-.81.24-2.66,1.52-12.32C140.13,27.2,141,21,142,12.73c.82-6.34,5.23-10.61,11-10.61a10.9,10.9,0,0,1,11,11c0,2.43-.34,8.09-.63,13.08-.18,3-.37,6.18-.37,6.92a4.9,4.9,0,0,0,5,5c3.63,0,4.72-3.42,5-5.46,1-6.25,2-12.7,3-19.95l0-.18C177.34,6.11,181.54,2.12,187,2.12a10.9,10.9,0,0,1,11,11v31h-6v-31a4.9,4.9,0,0,0-5-5c-3.5,0-4.68,3.78-5,5.5-1,7.27-2,13.72-3,20-1,6.49-5.22,10.53-11,10.53a10.89,10.89,0,0,1-11-11c0-.87.14-3.21.38-7.28.28-4.66.62-10.46.62-12.72a4.9,4.9,0,0,0-5-5c-2.67,0-4.59,2.07-5,5.39-1.07,8.27-1.89,14.48-2.5,19.07C144.54,39.63,144,43.51,144,44.15Z"/><path class="cls-2" d="M24,44.12H0v-6H24a6,6,0,1,0,0-12H6v6H0v-30H24a11.88,11.88,0,0,1,12,12,11.66,11.66,0,0,1-4,9,11.67,11.67,0,0,1,4,9A11.88,11.88,0,0,1,24,44.12Zm-18-24H24a6,6,0,0,0,0-12H6Z"/><path class="cls-2" d="M54,44.12H48v-12a12,12,0,0,1,12-12H72a6,6,0,0,0,0-12H54v6H48v-12H72a11.88,11.88,0,0,1,12,12,11.88,11.88,0,0,1-12,12H60a6,6,0,0,0-6,6Z"/><path class="cls-2" d="M102,44.12H96v-12a12,12,0,0,1,12-12h12a6,6,0,0,0,0-12H102v6H96v-12h24a11.88,11.88,0,0,1,12,12,11.88,11.88,0,0,1-12,12H108a6,6,0,0,0-6,6Z"/><path class="cls-2" d="M5.91,58.5a1.67,1.67,0,0,0-.31-.24A4.79,4.79,0,0,0,5,58a3.8,3.8,0,0,0-.72-.24,3,3,0,0,0-.78-.1,1.71,1.71,0,0,0-1.06.26.84.84,0,0,0-.35.73.74.74,0,0,0,.13.46,1.24,1.24,0,0,0,.38.32,3,3,0,0,0,.63.24c.25.08.54.16.88.24s.82.24,1.17.37a3.35,3.35,0,0,1,.9.5,2.07,2.07,0,0,1,.56.72,2.28,2.28,0,0,1,.2,1,2.67,2.67,0,0,1-.26,1.21,2.19,2.19,0,0,1-.73.81A3.17,3.17,0,0,1,5,65a5.61,5.61,0,0,1-1.24.14,6.68,6.68,0,0,1-2-.3A6.24,6.24,0,0,1,0,64L.76,62.5a2.62,2.62,0,0,0,.4.29,7.26,7.26,0,0,0,.69.36,5.46,5.46,0,0,0,.89.3,3.66,3.66,0,0,0,1,.13c.94,0,1.41-.3,1.41-.91A.76.76,0,0,0,5,62.18a1.59,1.59,0,0,0-.46-.35,5.24,5.24,0,0,0-.72-.27l-1-.27a9.92,9.92,0,0,1-1.1-.38A3,3,0,0,1,1,60.42a1.8,1.8,0,0,1-.46-.64,2.16,2.16,0,0,1-.16-.88,2.71,2.71,0,0,1,.25-1.2,2.47,2.47,0,0,1,.69-.87,3.24,3.24,0,0,1,1-.53,4.26,4.26,0,0,1,1.26-.18,5,5,0,0,1,1.71.29,6.74,6.74,0,0,1,1.37.69Z"/><path class="cls-2" d="M18.27,65.08a4,4,0,0,1-1.76-.38,4.21,4.21,0,0,1-1.35-1,4.61,4.61,0,0,1-.88-1.44A4.52,4.52,0,0,1,14,60.6a4.43,4.43,0,0,1,.33-1.69,4.53,4.53,0,0,1,.91-1.43,4.12,4.12,0,0,1,1.37-1,4,4,0,0,1,1.73-.37,3.91,3.91,0,0,1,1.75.39,4.33,4.33,0,0,1,1.35,1A4.9,4.9,0,0,1,22.28,59a4.51,4.51,0,0,1,.31,1.65,4.33,4.33,0,0,1-.32,1.68,4.46,4.46,0,0,1-.9,1.42,4.3,4.3,0,0,1-1.37,1A4.12,4.12,0,0,1,18.27,65.08ZM15.71,60.6a3.78,3.78,0,0,0,.17,1.11,3.1,3.1,0,0,0,.51.95,2.61,2.61,0,0,0,.81.66,2.4,2.4,0,0,0,1.09.25,2.32,2.32,0,0,0,1.1-.26,2.54,2.54,0,0,0,.81-.68,3.19,3.19,0,0,0,.5-1,3.58,3.58,0,0,0,.16-1.08,3.49,3.49,0,0,0-.18-1.11,3,3,0,0,0-.51-.94,2.48,2.48,0,0,0-.81-.66,2.37,2.37,0,0,0-1.07-.24,2.33,2.33,0,0,0-1.11.26,2.41,2.41,0,0,0-.81.67,2.86,2.86,0,0,0-.49,1A3.57,3.57,0,0,0,15.71,60.6Z"/><path class="cls-2" d="M30.14,65V56.18h1.72v7.34h4.5V65Z"/><path class="cls-2" d="M46.82,63.57a2,2,0,0,0,1-.25,2.19,2.19,0,0,0,.67-.65,2.68,2.68,0,0,0,.36-.92A5.29,5.29,0,0,0,49,60.69V56.18h1.7v4.51a6.18,6.18,0,0,1-.22,1.7,3.81,3.81,0,0,1-.68,1.4,3.34,3.34,0,0,1-1.2.95,4.7,4.7,0,0,1-3.56,0,3.49,3.49,0,0,1-1.2-1,3.77,3.77,0,0,1-.66-1.4A6.57,6.57,0,0,1,43,60.69V56.18h1.72v4.51a5.49,5.49,0,0,0,.1,1.08,2.63,2.63,0,0,0,.36.91,2,2,0,0,0,.67.64A2,2,0,0,0,46.82,63.57Z"/><path class="cls-2" d="M65.26,57.69H62.43V65H60.72V57.69H57.9V56.18h7.36Z"/><path class="cls-2" d="M72.57,65V56.18h1.72V65Z"/><path class="cls-2" d="M86.13,65.08a3.92,3.92,0,0,1-1.76-.38,4.25,4.25,0,0,1-1.36-1,4.81,4.81,0,0,1-.88-1.44,4.74,4.74,0,0,1-.31-1.66,4.43,4.43,0,0,1,.33-1.69,4.71,4.71,0,0,1,.91-1.43,4.26,4.26,0,0,1,1.38-1,4,4,0,0,1,1.73-.37,3.91,3.91,0,0,1,1.75.39,4.57,4.57,0,0,1,1.35,1A4.9,4.9,0,0,1,90.14,59a4.56,4.56,0,0,1,0,3.33,4.64,4.64,0,0,1-.9,1.42,4.42,4.42,0,0,1-1.37,1A4.16,4.16,0,0,1,86.13,65.08ZM83.57,60.6a3.48,3.48,0,0,0,.17,1.11,3.08,3.08,0,0,0,.5.95,2.61,2.61,0,0,0,.81.66,2.43,2.43,0,0,0,1.09.25,2.26,2.26,0,0,0,1.1-.26,2.54,2.54,0,0,0,.81-.68,3,3,0,0,0,.5-1,3.59,3.59,0,0,0,.17-1.08,3.49,3.49,0,0,0-.18-1.11,3,3,0,0,0-.51-.94,2.48,2.48,0,0,0-.81-.66,2.38,2.38,0,0,0-1.08-.24,2.4,2.4,0,0,0-1.91.93,3.08,3.08,0,0,0-.5,1A3.56,3.56,0,0,0,83.57,60.6Z"/><path class="cls-2" d="M99.71,59.36V65H98V56.18h1.34l4.6,5.8V56.2h1.72V65h-1.39Z"/><path class="cls-2" d="M123.39,60.54a4.49,4.49,0,0,1,.3-1.6,4.06,4.06,0,0,1,.85-1.41,4.25,4.25,0,0,1,1.37-1,4.18,4.18,0,0,1,1.84-.39,4,4,0,0,1,2.11.54,3.45,3.45,0,0,1,1.32,1.39l-1.31.91a2.26,2.26,0,0,0-.43-.63,2,2,0,0,0-.53-.4,2.54,2.54,0,0,0-.6-.22,3.26,3.26,0,0,0-.61-.07,2.39,2.39,0,0,0-1.13.26,2.48,2.48,0,0,0-.79.68,2.75,2.75,0,0,0-.48.95,3.49,3.49,0,0,0-.17,1.05,3.57,3.57,0,0,0,.19,1.13,3.15,3.15,0,0,0,.53,1,2.77,2.77,0,0,0,.82.66,2.2,2.2,0,0,0,1,.25,2.86,2.86,0,0,0,.63-.08,2.64,2.64,0,0,0,.61-.23,2.18,2.18,0,0,0,.54-.42,1.89,1.89,0,0,0,.4-.62l1.41.81a2.65,2.65,0,0,1-.6.88,4,4,0,0,1-.89.64,4.3,4.3,0,0,1-1,.4,4.67,4.67,0,0,1-1.1.14,3.86,3.86,0,0,1-1.73-.4,4.6,4.6,0,0,1-1.35-1,4.91,4.91,0,0,1-.88-1.46A4.54,4.54,0,0,1,123.39,60.54Z"/><path class="cls-2" d="M138.69,65V56.18h1.72v7.34h4.51V65Z"/><path class="cls-2" d="M152.19,65V56.18h1.71V65Z"/><path class="cls-2" d="M168.11,63.52V65H162V56.18h6v1.51h-4.31v2.13h3.72v1.39h-3.72v2.31Z"/><path class="cls-2" d="M177.39,59.36V65h-1.71V56.18H177l4.6,5.8V56.2h1.72V65h-1.39Z"/><path class="cls-2" d="M198,57.69h-2.83V65h-1.7V57.69h-2.83V56.18H198Z"/></g></g></svg>