<?xml version="1.0" encoding="UTF-8"?>
<svg width="172px" height="32px" viewBox="0 0 172 32" version="1.1" xmlns="http://www.w3.org/2000/svg" xmlns:xlink="http://www.w3.org/1999/xlink">
    <!-- Generator: sketchtool 55.2 (78181) - https://sketchapp.com -->
    <title>397F874E-B24B-4468-A44A-9E5EECE85A7D</title>
    <desc>Created with sketchtool.</desc>
    <g id="design_02" stroke="none" stroke-width="1" fill="none" fill-rule="evenodd">
        <g id="assets_icon" transform="translate(-211.000000, -361.000000)" fill-rule="nonzero">
            <g id="BPPM_logo_standlone" transform="translate(211.000000, 361.000000)">
                <g>
                    <path d="M158.484743,31.4825532 L155.602213,28.5957447 L166.996364,17.1846809 C167.791652,16.3872203 167.791652,15.0953329 166.996364,14.2978723 L155.602213,2.88680851 L158.484743,0 L169.878893,11.4110638 C172.264758,13.8034455 172.264758,17.6791077 169.878893,20.0714894 L158.484743,31.4825532 Z" id="Path" fill="#E30613"></path>
                    <polygon id="Path" fill="#E30613" points="152.366166 25.3548936 149.483636 22.4680851 156.200474 15.7412766 149.483636 9.01446809 152.366166 6.12765957 161.965534 15.7412766"></polygon>
                    <path d="M97.8972332,30.0595745 L93.8181818,30.0595745 C93.8181818,29.5080851 93.9813439,28.2485106 94.8515415,21.6714894 C95.2662451,18.5191489 95.8577075,14.2978723 96.5375494,8.66723404 C97.0950198,4.3506383 100.093123,1.44340426 104.01581,1.44340426 C106.004732,1.4250448 107.917527,2.20820333 109.323966,3.61673062 C110.730406,5.02525791 111.512403,6.94089217 111.494071,8.93276596 C111.494071,10.587234 111.262925,14.4408511 111.065771,17.8382979 C110.943399,19.8808511 110.814229,22.0459574 110.814229,22.5497872 C110.795519,23.4582666 111.147638,24.3350818 111.789214,24.9776103 C112.43079,25.6201388 113.306306,25.9727801 114.213439,25.9540426 C116.681265,25.9540426 117.422292,23.6255319 117.612648,22.2365957 C118.29249,17.9812766 118.972332,13.5897872 119.652174,8.65361702 L119.652174,8.53106383 C120.563162,4.16 123.418498,1.44340426 127.130435,1.44340426 C129.119356,1.4250448 131.032151,2.20820333 132.438591,3.61673062 C133.84503,5.02525791 134.627028,6.94089217 134.609011,8.93276596 L134.609011,30.0391489 L130.529644,30.0391489 L130.529644,8.93276596 C130.548354,8.02428664 130.196235,7.14747141 129.554659,6.5049429 C128.913083,5.86241439 128.037568,5.50977309 127.130435,5.52851064 C124.750988,5.52851064 123.948775,8.10212766 123.731225,9.27319149 C123.051383,14.2229787 122.371542,18.6144681 121.6917,22.8902128 C121.011858,27.3089362 118.142925,30.0595745 114.213439,30.0595745 C112.223957,30.0798038 110.310073,29.297246 108.903225,27.8883092 C107.496376,26.4793723 106.714979,24.5626477 106.735178,22.5702128 C106.735178,21.9778723 106.830356,20.3846809 106.993518,17.613617 C107.183874,14.4408511 107.41502,10.4919149 107.41502,8.95319149 C107.43373,8.04471217 107.081611,7.16789694 106.440035,6.52536843 C105.798459,5.88283992 104.922943,5.53019862 104.01581,5.54893617 C102.200632,5.54893617 100.895336,6.95829787 100.616601,9.2187234 C99.88917,14.8493617 99.3316996,19.0774468 98.916996,22.2025532 C98.2643478,26.9821277 97.8972332,29.6238298 97.8972332,30.0595745 Z" id="Path" fill="#FFFFFF"></path>
                    <path d="M16.3162055,30.0391489 L0,30.0391489 L0,25.9540426 L16.3162055,25.9540426 C18.5690034,25.9540426 20.3952569,24.1250781 20.3952569,21.8689362 C20.3952569,19.6127942 18.5690034,17.7838298 16.3162055,17.7838298 L4.07905138,17.7838298 L4.07905138,21.8689362 L0,21.8689362 L0,1.44340426 L16.3162055,1.44340426 C18.4865492,1.42133589 20.5744223,2.2750353 22.1091661,3.8120573 C23.6439099,5.34907931 24.496344,7.44005168 24.4743083,9.61361702 C24.5159734,11.9581421 23.5205472,14.2011757 21.7549407,15.7412766 C23.5197771,17.2819471 24.5150352,19.5246019 24.4743083,21.8689362 C24.496344,24.0425015 23.6439099,26.1334739 22.1091661,27.6704959 C20.5744223,29.2075179 18.4865492,30.0612173 16.3162055,30.0391489 Z M4.07905138,13.6987234 L16.3162055,13.6987234 C18.5690034,13.6987234 20.3952569,11.869759 20.3952569,9.61361702 C20.3952569,7.35747509 18.5690034,5.52851064 16.3162055,5.52851064 L4.07905138,5.52851064 L4.07905138,13.6987234 Z" id="Shape" fill="#FFFFFF"></path>
                    <path d="M36.7114625,30.0391489 L32.6324111,30.0391489 L32.6324111,21.8689362 C32.6324111,17.3566523 36.2849181,13.6987234 40.7905138,13.6987234 L48.9486166,13.6987234 C51.2014144,13.6987234 53.0276679,11.869759 53.0276679,9.61361702 C53.0276679,7.35747509 51.2014144,5.52851067 48.9486166,5.52851064 L36.7114625,5.52851064 L36.7114625,9.61361702 L32.6324111,9.61361702 L32.6324111,1.44340426 L48.9486166,1.44340426 C51.1189603,1.42133589 53.2068334,2.2750353 54.7415772,3.8120573 C56.276321,5.34907931 57.128755,7.44005168 57.1067194,9.61361702 C57.128755,11.7871824 56.276321,13.8781547 54.7415772,15.4151767 C53.2068334,16.9521987 51.1189603,17.8058982 48.9486166,17.7838298 L40.7905138,17.7838298 C38.537716,17.7838298 36.7114625,19.6127942 36.7114625,21.8689362 L36.7114625,30.0391489 Z" id="Path" fill="#FFFFFF"></path>
                    <path d="M69.3438735,30.0391489 L65.2648221,30.0391489 L65.2648221,21.8689362 C65.2648221,17.3566523 68.9173292,13.6987234 73.4229249,13.6987234 L81.5810277,13.6987234 C83.8338255,13.6987234 85.660079,11.869759 85.660079,9.61361702 C85.660079,7.35747509 83.8338255,5.52851067 81.5810277,5.52851064 L69.3438735,5.52851064 L69.3438735,9.61361702 L65.2648221,9.61361702 L65.2648221,1.44340426 L81.5810277,1.44340426 C83.7513713,1.42133589 85.8392444,2.2750353 87.3739882,3.8120573 C88.908732,5.34907931 89.7611661,7.44005168 89.7391304,9.61361702 C89.7611661,11.7871824 88.908732,13.8781547 87.3739882,15.4151767 C85.8392444,16.9521987 83.7513713,17.8058982 81.5810277,17.7838298 L73.4229249,17.7838298 C71.170127,17.7838298 69.3438735,19.6127942 69.3438735,21.8689362 L69.3438735,30.0391489 Z" id="Path" fill="#FFFFFF"></path>
                </g>
            </g>
        </g>
    </g>
</svg>