<svg xmlns="http://www.w3.org/2000/svg" viewBox="0 0 252.51 46.24"><defs><style>.cls-1{fill:#fff;}</style></defs><title>Asset 2</title><g id="Layer_2" data-name="Layer 2"><g id="Layer_1-2" data-name="Layer 1"><path class="cls-1" d="M233.12,46.24,228.88,42l16.76-16.76a3,3,0,0,0,0-4.24L228.88,4.24,233.12,0l16.76,16.76a9,9,0,0,1,0,12.72Z"/><polygon class="cls-1" points="224.12 37.24 219.88 33 229.76 23.12 219.88 13.24 224.12 9 238.24 23.12 224.12 37.24"/><path class="cls-1" d="M144,44.15l-6,0c0-.81.24-2.66,1.52-12.32C140.13,27.2,141,21,142,12.73c.82-6.34,5.23-10.61,11-10.61a10.9,10.9,0,0,1,11,11c0,2.43-.34,8.09-.63,13.08-.18,3-.37,6.18-.37,6.92a4.9,4.9,0,0,0,5,5c3.63,0,4.72-3.42,5-5.46,1-6.25,2-12.7,3-19.95l0-.18C177.34,6.11,181.54,2.12,187,2.12a10.9,10.9,0,0,1,11,11v31h-6v-31a4.9,4.9,0,0,0-5-5c-3.5,0-4.68,3.78-5,5.5-1,7.27-2,13.72-3,20-1,6.49-5.22,10.53-11,10.53a10.89,10.89,0,0,1-11-11c0-.87.14-3.21.38-7.28.28-4.66.62-10.46.62-12.72a4.9,4.9,0,0,0-5-5c-2.67,0-4.59,2.07-5,5.39-1.07,8.27-1.89,14.48-2.5,19.07C144.54,39.63,144,43.51,144,44.15Z"/><path class="cls-1" d="M24,44.12H0v-6H24a6,6,0,1,0,0-12H6v6H0v-30H24a11.88,11.88,0,0,1,12,12,11.66,11.66,0,0,1-4,9,11.67,11.67,0,0,1,4,9A11.88,11.88,0,0,1,24,44.12Zm-18-24H24a6,6,0,0,0,0-12H6Z"/><path class="cls-1" d="M54,44.12H48v-12a12,12,0,0,1,12-12H72a6,6,0,0,0,0-12H54v6H48v-12H72a11.88,11.88,0,0,1,12,12,11.88,11.88,0,0,1-12,12H60a6,6,0,0,0-6,6Z"/><path class="cls-1" d="M102,44.12H96v-12a12,12,0,0,1,12-12h12a6,6,0,0,0,0-12H102v6H96v-12h24a11.88,11.88,0,0,1,12,12,11.88,11.88,0,0,1-12,12H108a6,6,0,0,0-6,6Z"/></g></g></svg>